<svg width="14" height="14" viewBox="0 0 14 14" fill="none" xmlns="http://www.w3.org/2000/svg">
<path d="M4.025 0.518519C4.025 0.232151 3.78995 0 3.5 0C3.21005 0 2.975 0.232151 2.975 0.518519V1.61035C1.96747 1.69003 1.30604 1.88559 0.820099 2.36553C0.334159 2.84547 0.136157 3.49873 0.0554821 4.49383H13.9445C13.8639 3.49873 13.6658 2.84547 13.1799 2.36553C12.6939 1.88559 12.0325 1.69003 11.025 1.61035V0.518519C11.025 0.232151 10.7899 0 10.5 0C10.2101 0 9.975 0.232151 9.975 0.518519V1.56447C9.50929 1.55556 8.9873 1.55556 8.4 1.55556H5.6C5.01268 1.55556 4.49069 1.55556 4.025 1.56447V0.518519Z" fill="white"/>
<path fill-rule="evenodd" clip-rule="evenodd" d="M0 7.08642C0 6.50637 7.94828e-08 5.99082 0.00903008 5.53086H13.991C14 5.99082 14 6.50637 14 7.08642V8.46914C14 11.0764 14 12.3801 13.1799 13.19C12.3598 14 11.0398 14 8.4 14H5.6C2.96013 14 1.64021 14 0.820099 13.19C8.01086e-08 12.3801 0 11.0764 0 8.46914V7.08642ZM10.5 8.46914C10.8866 8.46914 11.2 8.15961 11.2 7.77778C11.2 7.39594 10.8866 7.08642 10.5 7.08642C10.1134 7.08642 9.8 7.39594 9.8 7.77778C9.8 8.15961 10.1134 8.46914 10.5 8.46914ZM10.5 11.2346C10.8866 11.2346 11.2 10.925 11.2 10.5432C11.2 10.1614 10.8866 9.85185 10.5 9.85185C10.1134 9.85185 9.8 10.1614 9.8 10.5432C9.8 10.925 10.1134 11.2346 10.5 11.2346ZM7.7 7.77778C7.7 8.15961 7.38661 8.46914 7 8.46914C6.61339 8.46914 6.3 8.15961 6.3 7.77778C6.3 7.39594 6.61339 7.08642 7 7.08642C7.38661 7.08642 7.7 7.39594 7.7 7.77778ZM7.7 10.5432C7.7 10.925 7.38661 11.2346 7 11.2346C6.61339 11.2346 6.3 10.925 6.3 10.5432C6.3 10.1614 6.61339 9.85185 7 9.85185C7.38661 9.85185 7.7 10.1614 7.7 10.5432ZM3.5 8.46914C3.8866 8.46914 4.2 8.15961 4.2 7.77778C4.2 7.39594 3.8866 7.08642 3.5 7.08642C3.1134 7.08642 2.8 7.39594 2.8 7.77778C2.8 8.15961 3.1134 8.46914 3.5 8.46914ZM3.5 11.2346C3.8866 11.2346 4.2 10.925 4.2 10.5432C4.2 10.1614 3.8866 9.85185 3.5 9.85185C3.1134 9.85185 2.8 10.1614 2.8 10.5432C2.8 10.925 3.1134 11.2346 3.5 11.2346Z" fill="white"/>
</svg>
