<svg width="21" height="14" viewBox="0 0 21 14" fill="none" xmlns="http://www.w3.org/2000/svg">
<path d="M20.7583 4.23884C21.0806 4.37678 21.0806 4.60262 20.7583 4.73921L11.0867 8.87465C10.7075 9.01241 10.2925 9.01241 9.91331 8.87465L0.241657 4.74056C-0.0805524 4.60262 -0.0805524 4.37543 0.241657 4.23884L9.91331 0.103404C10.2925 -0.0344678 10.7075 -0.0344678 11.0867 0.103404L20.7583 4.23884ZM11.5848 10.0579L16.9321 7.7725V10.5867C16.9321 12.4719 14.0524 14 10.5 14C6.94764 14 4.06924 12.4719 4.06924 10.5867V7.77114L9.41523 10.0566C10.1129 10.3303 10.8871 10.3303 11.5848 10.0566V10.0579ZM18.2169 12.3258H20.4214V10.8504C20.4265 10.7013 20.4018 10.5526 20.3487 10.4133C20.2956 10.2739 20.2152 10.1468 20.1123 10.0394C20.0094 9.93208 19.886 9.8467 19.7497 9.78839C19.6133 9.73008 19.4666 9.70003 19.3185 9.70003C19.1703 9.70003 19.0237 9.73008 18.8873 9.78839C18.7509 9.8467 18.6276 9.93208 18.5246 10.0394C18.4217 10.1468 18.3413 10.2739 18.2882 10.4133C18.2351 10.5526 18.2104 10.7013 18.2156 10.8504L18.2169 12.3258ZM19.3178 7.45334C19.465 7.45361 19.6089 7.4099 19.7314 7.32774C19.8539 7.24558 19.9494 7.12867 20.0059 6.99179C20.0624 6.85492 20.0773 6.70424 20.0488 6.55882C20.0202 6.4134 19.9495 6.27978 19.8455 6.17487C19.7416 6.06996 19.6091 5.99847 19.4647 5.96945C19.3204 5.94044 19.1708 5.95519 19.0348 6.01186C18.8988 6.06852 18.7826 6.16455 18.7008 6.28778C18.619 6.41102 18.5754 6.55592 18.5754 6.70415C18.5754 6.90285 18.6537 7.09341 18.7932 7.23391C18.9327 7.37441 19.1219 7.45334 19.3191 7.45334H19.3178ZM19.3178 9.3669C19.4649 9.36717 19.6088 9.32349 19.7312 9.24139C19.8537 9.15929 19.9492 9.04245 20.0058 8.90566C20.0623 8.76886 20.0773 8.61825 20.0489 8.47287C20.0204 8.32749 19.9498 8.19387 19.846 8.0889C19.7422 7.98394 19.6098 7.91234 19.4656 7.88317C19.3213 7.854 19.1718 7.86857 19.0358 7.92503C18.8997 7.98148 18.7834 8.0773 18.7015 8.20035C18.6195 8.32341 18.5756 8.46818 18.5754 8.61635C18.5752 8.71485 18.5943 8.81242 18.6316 8.90347C18.6689 8.99453 18.7237 9.07728 18.7927 9.14699C18.8618 9.2167 18.9439 9.27201 19.0342 9.30974C19.1245 9.34748 19.2214 9.3669 19.3191 9.3669H19.3178Z" fill="#3C3238"/>
</svg>
