<svg width="14" height="14" viewBox="0 0 14 14" fill="none" xmlns="http://www.w3.org/2000/svg">
<path fill-rule="evenodd" clip-rule="evenodd" d="M0 7C0 3.1339 3.1339 0 7 0C10.8661 0 14 3.1339 14 7C14 10.8661 10.8661 14 7 14C3.1339 14 0 10.8661 0 7ZM7.7 3.5C7.7 3.31435 7.62625 3.1363 7.49497 3.00503C7.3637 2.87375 7.18565 2.8 7 2.8C6.81435 2.8 6.6363 2.87375 6.50503 3.00503C6.37375 3.1363 6.3 3.31435 6.3 3.5V6.1348C6.30001 6.52473 6.40859 6.90697 6.61358 7.23868C6.81856 7.57038 7.11185 7.83847 7.4606 8.0129L9.4871 9.0258C9.56961 9.0703 9.66022 9.09776 9.75356 9.10658C9.84689 9.11539 9.94104 9.10536 10.0304 9.07709C10.1198 9.04883 10.2026 9.00289 10.2739 8.94202C10.3452 8.88115 10.4035 8.80657 10.4454 8.72272C10.4874 8.63887 10.512 8.54746 10.5179 8.4539C10.5239 8.36034 10.5109 8.26655 10.4799 8.17808C10.4489 8.08961 10.4004 8.00828 10.3374 7.9389C10.2743 7.86952 10.198 7.81351 10.1129 7.7742L8.0871 6.7606C7.97084 6.70251 7.87305 6.61319 7.80469 6.50267C7.73632 6.39214 7.70007 6.26476 7.7 6.1348V3.5Z" fill="#B7141B"/>
</svg>
