<svg width="22" height="11" viewBox="0 0 22 11" fill="none" xmlns="http://www.w3.org/2000/svg">
<path d="M10.9996 2.90991C9.51291 2.90991 8.30341 4.07177 8.30341 5.49989C8.30341 6.92801 9.51291 8.08984 10.9996 8.08984C12.4863 8.08984 13.6958 6.92797 13.6958 5.49989C13.6958 4.07177 12.4863 2.90991 10.9996 2.90991Z" fill="white"/>
<path d="M21.6245 5.09584C21.576 5.0437 20.4166 3.8045 18.5392 2.55461C16.029 0.883376 13.422 0 11 0C8.57804 0 5.97098 0.883376 3.46075 2.55461C1.58339 3.8045 0.42393 5.0437 0.375504 5.09584L0 5.5L0.375504 5.90417C0.42393 5.9563 1.58339 7.1955 3.46075 8.44541C5.97098 10.1166 8.57804 11 11 11C13.422 11 16.029 10.1166 18.5392 8.44541C20.4166 7.1955 21.576 5.9563 21.6245 5.90417L22 5.5L21.6245 5.09584ZM11 9.30398C8.81645 9.30398 7.03995 7.59752 7.03995 5.5C7.03995 3.40244 8.81645 1.69596 11 1.69596C13.1836 1.69596 14.9601 3.40244 14.9601 5.5C14.9601 7.5976 13.1836 9.30398 11 9.30398Z" fill="white"/>
</svg>
