<svg width="17" height="20" viewBox="0 0 17 20" fill="none" xmlns="http://www.w3.org/2000/svg">
<path d="M8.50001 0C9.27338 0 9.90034 0.59692 9.90034 1.33333C9.90034 1.41095 9.95779 1.4776 10.0373 1.49456C10.223 1.53416 10.4058 1.58075 10.5855 1.63408C10.6631 1.65708 10.7475 1.62679 10.7881 1.55981C11.1748 0.92212 12.0312 0.703613 12.701 1.07177C13.3708 1.43995 13.6003 2.25545 13.2135 2.89315C13.1723 2.96103 13.1872 3.04693 13.2477 3.10009C13.3858 3.22141 13.5186 3.34795 13.6461 3.47941C13.7019 3.537 13.7921 3.55113 13.8634 3.51196C14.5332 3.1438 15.3896 3.36231 15.7764 4C16.163 4.63769 15.9335 5.4532 15.2637 5.82137C15.1934 5.86001 15.1616 5.9404 15.1857 6.01421C15.2417 6.18536 15.2908 6.35949 15.3323 6.53627C15.3501 6.61197 15.4201 6.66667 15.5016 6.66667C16.2751 6.66667 16.902 7.26359 16.902 8C16.902 8.73641 16.2751 9.33333 15.5016 9.33333C15.4201 9.33333 15.3501 9.38803 15.3323 9.46373C15.3213 9.51101 15.3097 9.55809 15.2975 9.60499C15.264 9.73341 15.2268 9.8604 15.1857 9.98579C15.1616 10.0596 15.1934 10.14 15.2637 10.1786C15.9335 10.5468 16.163 11.3623 15.7764 12C15.3896 12.6377 14.5332 12.8563 13.8634 12.488L13.7925 12.4491C13.7626 12.4325 13.7245 12.4385 13.7014 12.4629C13.68 12.4855 13.6762 12.5184 13.6921 12.5447L17 18L14.4808 17.8453L13.3618 20L10.0626 14.5589C10.0438 14.5279 10.0061 14.5121 9.96927 14.5196C9.92922 14.5277 9.90034 14.5613 9.90034 14.6003V14.6667C9.90034 15.4031 9.27338 16 8.50001 16C7.72663 16 7.09968 15.4031 7.09968 14.6667V14.6003C7.09968 14.5613 7.07079 14.5277 7.03074 14.5196C6.99395 14.5121 6.95623 14.5279 6.93742 14.5589L3.63816 20L2.51925 17.8453L0 18L3.3079 12.5447C3.32381 12.5184 3.31998 12.4855 3.29868 12.4629C3.27549 12.4385 3.2375 12.4325 3.20751 12.4491L3.1366 12.488C2.46682 12.8563 1.61042 12.6377 1.2237 12C0.837004 11.3623 1.06649 10.5468 1.73627 10.1786C1.80658 10.14 1.83839 10.0596 1.81424 9.98583C1.75822 9.81467 1.70925 9.64052 1.66765 9.46373C1.64984 9.38803 1.57985 9.33333 1.49837 9.33333C0.724992 9.33333 0.0980369 8.73641 0.0980369 8C0.0980369 7.26359 0.724992 6.66667 1.49837 6.66667C1.57985 6.66667 1.64984 6.61197 1.66765 6.53627C1.70925 6.35948 1.75822 6.18533 1.81424 6.01417C1.83839 5.94037 1.80658 5.86001 1.73627 5.82137C1.06649 5.4532 0.837004 4.63769 1.2237 4C1.61042 3.36231 2.46682 3.1438 3.1366 3.51196C3.20786 3.55113 3.29805 3.53701 3.35387 3.47944C3.48134 3.34793 3.6143 3.22132 3.7524 3.09995C3.81286 3.04683 3.82769 2.96097 3.78654 2.89315C3.39988 2.25545 3.62933 1.44003 4.29911 1.07177C4.96888 0.703613 5.8253 0.92212 6.212 1.55981C6.25258 1.62679 6.337 1.65709 6.41453 1.63411C6.59424 1.5808 6.77709 1.53419 6.96269 1.49457C7.04222 1.4776 7.09968 1.41095 7.09968 1.33333C7.09968 0.59692 7.72663 0 8.50001 0ZM8.50001 4C6.17986 4 4.29902 5.79085 4.29902 8C4.29902 10.2091 6.17986 12 8.50001 12C10.8202 12 12.701 10.2091 12.701 8C12.701 5.79085 10.8202 4 8.50001 4ZM8.50001 6.66667C9.2734 6.66667 9.90034 7.26363 9.90034 8C9.90034 8.73637 9.2734 9.33333 8.50001 9.33333C7.72663 9.33333 7.09968 8.73637 7.09968 8C7.09968 7.26363 7.72663 6.66667 8.50001 6.66667Z" fill="#3C3238"/>
</svg>
