<svg width="11" height="20" viewBox="0 0 11 20" fill="none" xmlns="http://www.w3.org/2000/svg">
<path d="M4.87405 12.2189H3.15878C1.39547 12.2189 0.513834 12.2189 0.144601 11.65C-0.224631 11.081 0.145766 10.2933 0.886559 8.71761L4.30605 1.44508C4.77452 0.448761 5.00863 -0.0494004 5.25439 0.0038649C5.50002 0.0571425 5.50002 0.606104 5.50002 1.70404V7.16477C5.50002 7.45532 5.50002 7.60065 5.59166 7.69089C5.6833 7.78112 5.8309 7.78112 6.12598 7.78112H7.84125C9.6046 7.78112 10.4862 7.78112 10.8554 8.35002C11.2246 8.91903 10.8543 9.70673 10.1135 11.2823L6.69398 18.5549C6.22551 19.5513 5.9914 20.0494 5.74565 19.9961C5.50002 19.9429 5.50002 19.3938 5.50002 18.296V12.8352C5.50002 12.5447 5.50002 12.3993 5.40837 12.3091C5.31673 12.2189 5.16913 12.2189 4.87405 12.2189Z" fill="#B7141B"/>
</svg>
