<svg width="231" height="60" viewBox="0 0 231 60" fill="none" xmlns="http://www.w3.org/2000/svg">
<path d="M34.871 0.277126L58.909 14.2786C59.2075 14.4526 59.4551 14.7028 59.6271 15.0041C59.7991 15.3053 59.8892 15.6469 59.8885 15.9945V28.8768H55.9432V17.135L33.8558 4.28242L11.7683 17.135V28.3161H7.81886V15.9988C7.81836 15.6254 7.92276 15.2595 8.11996 14.9434C8.31715 14.6273 8.59909 14.374 8.93314 14.2128L32.8658 0.270749C33.1687 0.0933998 33.5128 0 33.8631 0C34.2135 0 34.5575 0.0933998 34.8605 0.270749L34.871 0.277126ZM59.8969 32.8927V43.9953C59.8973 44.3687 59.7934 44.7347 59.5971 45.0513C59.4008 45.3679 59.12 45.6224 58.7868 45.7856L34.8458 59.7339C34.5421 59.9107 34.1971 60.0026 33.8464 60C33.4957 59.9973 33.1521 59.9004 32.851 59.7191L8.8152 45.7218C8.51567 45.5475 8.26689 45.2968 8.09386 44.9948C7.92083 44.6929 7.82963 44.3504 7.82941 44.0017V32.3214H11.7789V42.8464L33.8663 55.7032L55.9537 42.8464V32.8927H59.8969Z" fill="#B7141B"/>
<path d="M29.5503 47.9921C29.8143 47.9932 30.0691 47.8942 30.2641 47.7148C30.4592 47.5355 30.5803 47.2888 30.6035 47.0237L33.1312 21.9005L34.7973 33.9906C34.811 34.1269 34.852 34.259 34.9179 34.3787C34.9838 34.4985 35.0732 34.6034 35.1807 34.6872C35.3653 34.842 35.5978 34.9269 35.8379 34.9272C35.9805 34.9261 36.1215 34.8958 36.2522 34.8381C36.383 34.7805 36.5007 34.6966 36.5983 34.5916L39.2418 31.8479H43.979C44.1914 31.8471 44.3986 31.7815 44.5734 31.6599C44.7482 31.5382 44.8824 31.3661 44.9585 31.1662L46.8542 26.2244L48.8342 31.2702C48.859 31.3358 48.8908 31.3984 48.929 31.4571C49.0246 31.6065 49.1559 31.7294 49.3108 31.8144C49.4658 31.8993 49.6394 31.9437 49.8158 31.9434H65.7273C66.0067 31.9434 66.2745 31.8315 66.472 31.6324C66.6696 31.4333 66.7805 31.1632 66.7805 30.8816C66.7805 30.6 66.6696 30.3299 66.472 30.1307C66.2745 29.9316 66.0067 29.8197 65.7273 29.8197H50.5425L47.8505 22.9623C47.7617 22.7015 47.5738 22.4868 47.3281 22.3656C47.1973 22.3024 47.0549 22.2672 46.91 22.262C46.765 22.2569 46.6205 22.2821 46.4856 22.3359C46.3492 22.3902 46.2259 22.4733 46.1238 22.5795C46.0217 22.6856 45.9433 22.8126 45.8937 22.9517L43.286 29.7263H38.81C38.5302 29.7285 38.2624 29.8414 38.0643 30.0406L36.5899 31.5718L34.0285 12.9301C34.0309 12.9117 34.0309 12.8932 34.0285 12.8748C33.9799 12.6346 33.8503 12.4188 33.6618 12.264C33.4733 12.1091 33.2374 12.0248 32.9943 12.0254C32.9284 12.0251 32.8627 12.0322 32.7984 12.0466C32.5734 12.0899 32.3689 12.2068 32.2166 12.3792C32.0643 12.5516 31.9726 12.7699 31.9558 13.0002L29.1838 40.1748L26.138 25.9037C26.0805 25.6717 25.9471 25.4661 25.7593 25.3202C25.5715 25.1742 25.3404 25.0964 25.1033 25.0994C24.8662 25.1023 24.637 25.1858 24.4528 25.3364C24.2687 25.487 24.1403 25.6958 24.0885 25.9291L21.7841 36.091L17.8642 29.7666C17.8556 29.758 17.8485 29.7479 17.8431 29.7369C17.7449 29.5948 17.6137 29.4792 17.461 29.4C17.3082 29.3208 17.1386 29.2804 16.9669 29.2824H1.97578C1.82744 29.2634 1.67681 29.2764 1.53386 29.3207C1.39091 29.3649 1.25891 29.4393 1.1467 29.539C1.03449 29.6386 0.944613 29.7612 0.883047 29.8986C0.821482 30.036 0.789659 30.185 0.789659 30.3358C0.789659 30.4865 0.821482 30.6356 0.883047 30.773C0.944613 30.9103 1.03449 31.033 1.1467 31.1326C1.25891 31.2323 1.39091 31.3067 1.53386 31.3509C1.67681 31.3951 1.82744 31.4081 1.97578 31.3891H16.3897L21.3418 39.3466C21.4445 39.5305 21.6002 39.6787 21.7884 39.7713C21.8675 39.8097 21.9509 39.8382 22.0369 39.8563C22.3067 39.9093 22.5863 39.8539 22.8162 39.702C23.046 39.55 23.2078 39.3135 23.267 39.0429L25.0827 31.0111L28.5309 47.1511C28.5294 47.1631 28.5294 47.1752 28.5309 47.1872C28.5854 47.4149 28.714 47.6176 28.8961 47.7631C29.0781 47.9086 29.3033 47.9885 29.5356 47.99L29.5503 47.9921Z" fill="#B7141B"/>
<path fill-rule="evenodd" clip-rule="evenodd" d="M2.03477 28.2907C2.43661 28.2911 2.82932 28.4116 3.16326 28.6369C3.49721 28.8623 3.7574 29.1824 3.91099 29.5568C4.06457 29.9311 4.10465 30.343 4.02615 30.7403C3.94766 31.1377 3.75411 31.5026 3.46996 31.7891C3.18582 32.0756 2.82384 32.2708 2.42974 32.3499C2.03564 32.429 1.62711 32.3887 1.25578 32.2338C0.884444 32.079 0.566954 31.8166 0.343443 31.4799C0.119932 31.1432 0.000416632 30.7473 0 30.3421C0 29.7981 0.214375 29.2763 0.595966 28.8915C0.977557 28.5068 1.49511 28.2907 2.03477 28.2907Z" fill="#B7141B"/>
<path d="M91.7132 34.557V22.1696L86.8792 31.3937H84.834L80 22.1696V34.557H76.3347V15.6835H80.2656L85.8433 26.4228L91.4741 15.6835H95.3785V34.557H91.7132Z" fill="white"/>
<path d="M111.879 31.3405V34.557H98.7845V15.6835H111.64V18.9H102.45V23.4456H110.391V26.4228H102.45V31.3405H111.879Z" fill="white"/>
<path d="M113.036 38.1722V31.3405H114.046C114.524 31.3405 114.94 31.1544 115.294 30.7823C115.648 30.4101 115.949 29.8165 116.197 29.0013C116.445 28.1861 116.64 27.1316 116.781 25.838C116.941 24.5266 117.047 22.9405 117.1 21.0797L117.26 15.6835H129.823V31.3405H132.319V38.1722H129.105V34.557H116.25V38.1722H113.036ZM118.428 31.3405H126.184V18.9H120.58L120.526 21.5582C120.473 23.4013 120.367 24.9696 120.208 26.2633C120.066 27.557 119.854 28.6203 119.57 29.4532C119.305 30.2861 118.924 30.9152 118.428 31.3405Z" fill="white"/>
<path d="M134.685 34.557V15.6835H146.265V18.9H138.324V34.557H134.685Z" fill="white"/>
<path d="M153.493 15.6835H157.211L164.143 34.557H160.372L158.619 29.8519H152.032L150.305 34.557H146.534L153.493 15.6835ZM157.955 27.2734L155.352 19.4848L152.643 27.2734H157.955Z" fill="white"/>
<path d="M165.68 34.557V15.6835H173.675C174.543 15.6835 175.34 15.8608 176.066 16.2152C176.792 16.5696 177.42 17.0481 177.951 17.6506C178.5 18.2532 178.925 18.9266 179.226 19.6709C179.527 20.4152 179.678 21.1772 179.678 21.957C179.678 23.0203 179.43 24.0304 178.934 24.9873C178.438 25.9443 177.757 26.7241 176.889 27.3266C176.021 27.9291 174.994 28.2304 173.808 28.2304H169.346V34.557H165.68ZM169.346 25.0139H173.595C174.038 25.0139 174.437 24.8899 174.791 24.6418C175.145 24.3937 175.428 24.0392 175.641 23.5785C175.853 23.1 175.959 22.5595 175.959 21.957C175.959 21.3013 175.835 20.743 175.587 20.2823C175.357 19.8215 175.047 19.4759 174.658 19.2456C174.286 19.0152 173.879 18.9 173.436 18.9H169.346V25.0139Z" fill="white"/>
<path d="M185.449 15.6835H189.168L196.1 34.557H192.328L190.575 29.8519H183.988L182.262 34.557H178.49L185.449 15.6835ZM189.911 27.2734L187.308 19.4848L184.599 27.2734H189.911Z" fill="white"/>
<path d="M213.494 15.6835V34.557H209.855V26.5025H201.302V34.557H197.637V15.6835H201.302V23.3127H209.855V15.6835H213.494Z" fill="white"/>
<path d="M231 18.9H224.971V34.557H221.332V18.9H215.303V15.6835H231V18.9Z" fill="white"/>
<path d="M75.2116 48.9873V43.0519H75.9856V45.6038H79.3777V43.0519H80.1518V48.9873H79.3777V46.2987H75.9856V48.9873H75.2116Z" fill="white"/>
<path d="M81.3813 47.2785C81.3813 46.9063 81.4875 46.5873 81.7 46.3215C81.9125 46.0481 82.2046 45.8392 82.5765 45.6949C82.9559 45.543 83.3923 45.4671 83.8855 45.4671C84.1739 45.4671 84.4736 45.4899 84.7848 45.5354C85.0959 45.581 85.3729 45.6494 85.6157 45.7405V45.2392C85.6157 44.738 85.4678 44.3392 85.1718 44.043C84.8758 43.7468 84.4661 43.5987 83.9424 43.5987C83.6237 43.5987 83.3088 43.6595 82.9976 43.781C82.6941 43.8949 82.3754 44.0658 82.0415 44.2937L81.7455 43.7468C82.1325 43.481 82.512 43.2835 82.8838 43.1544C83.2557 43.0177 83.6351 42.9494 84.0221 42.9494C84.7506 42.9494 85.3274 43.1582 85.7523 43.5759C86.1773 43.9937 86.3898 44.5709 86.3898 45.3076V48.0532C86.3898 48.1595 86.4126 48.2392 86.4581 48.2924C86.5036 48.338 86.5757 48.3646 86.6744 48.3722V48.9873C86.5909 48.9949 86.5188 49.0025 86.4581 49.0101C86.3974 49.0177 86.3518 49.0177 86.3215 49.0101C86.1318 49.0025 85.9876 48.9418 85.8889 48.8279C85.7903 48.7139 85.7372 48.5924 85.7296 48.4633L85.7182 48.0304C85.4526 48.3722 85.1073 48.638 84.6823 48.8279C84.2574 49.0101 83.8248 49.1013 83.3847 49.1013C83.0052 49.1013 82.6599 49.0215 82.3488 48.862C82.0453 48.6949 81.8062 48.4747 81.6317 48.2013C81.4647 47.9203 81.3813 47.6127 81.3813 47.2785ZM85.3539 47.7342C85.4374 47.6278 85.5019 47.5253 85.5474 47.4266C85.593 47.3279 85.6157 47.2405 85.6157 47.1646V46.2987C85.3577 46.2 85.0883 46.1241 84.8075 46.0709C84.5344 46.0177 84.2574 45.9911 83.9766 45.9911C83.4226 45.9911 82.9749 46.1013 82.6334 46.3215C82.2919 46.5418 82.1211 46.8418 82.1211 47.2215C82.1211 47.4418 82.1781 47.6506 82.2919 47.8481C82.4057 48.038 82.5727 48.1975 82.7927 48.3266C83.0128 48.4481 83.2708 48.5089 83.5668 48.5089C83.9386 48.5089 84.2839 48.4367 84.6027 48.2924C84.929 48.1481 85.1794 47.962 85.3539 47.7342Z" fill="white"/>
<path d="M91.0901 49.1013C90.5968 49.1013 90.1529 48.9721 89.7583 48.7139C89.3713 48.4557 89.0639 48.1367 88.8363 47.757V51.4139H88.0622V43.0519H88.7566V44.2025C88.9918 43.8304 89.3068 43.5304 89.7014 43.3025C90.096 43.0671 90.5172 42.9494 90.9649 42.9494C91.3747 42.9494 91.7503 43.0367 92.0918 43.2114C92.4333 43.3785 92.7293 43.6063 92.9797 43.8949C93.2301 44.1835 93.4236 44.5139 93.5602 44.8861C93.7044 45.2506 93.7765 45.6304 93.7765 46.0253C93.7765 46.5797 93.6627 47.0924 93.435 47.5633C93.2149 48.0266 92.9038 48.3987 92.5016 48.6797C92.0994 48.9608 91.6289 49.1013 91.0901 49.1013ZM90.8738 48.4177C91.2001 48.4177 91.4923 48.3532 91.7503 48.2241C92.0083 48.0873 92.2284 47.9051 92.4105 47.6772C92.6003 47.4494 92.7444 47.1949 92.8431 46.9139C92.9417 46.6253 92.9911 46.3291 92.9911 46.0253C92.9911 45.7063 92.9342 45.4025 92.8203 45.1139C92.7141 44.8253 92.5585 44.5709 92.3536 44.3506C92.1487 44.1304 91.9135 43.9557 91.6479 43.8266C91.3823 43.6975 91.0939 43.6329 90.7828 43.6329C90.5854 43.6329 90.3806 43.6709 90.1681 43.7468C89.9556 43.8228 89.7507 43.9329 89.5534 44.0772C89.3637 44.2139 89.2043 44.3696 89.0753 44.5443C88.9463 44.719 88.8666 44.9051 88.8363 45.1025V46.9253C88.9577 47.2063 89.1208 47.4608 89.3257 47.6886C89.5306 47.9089 89.7659 48.0873 90.0315 48.2241C90.3047 48.3532 90.5854 48.4177 90.8738 48.4177Z" fill="white"/>
<path d="M95.0763 48.9873V43.0519H95.8503V45.5924H96.7382L98.7303 43.0519H99.6181L97.3529 45.9342L99.9027 48.9873H98.9921L96.7382 46.3101H95.8503V48.9873H95.0763Z" fill="white"/>
<path d="M103.217 49.1013C102.792 49.1013 102.398 49.0215 102.033 48.862C101.677 48.6949 101.366 48.4709 101.1 48.1899C100.842 47.9013 100.641 47.5747 100.497 47.2101C100.353 46.838 100.28 46.4468 100.28 46.0367C100.28 45.6114 100.353 45.2165 100.497 44.8519C100.641 44.4797 100.846 44.1532 101.111 43.8722C101.377 43.5835 101.688 43.3595 102.045 43.2C102.409 43.0329 102.804 42.9494 103.229 42.9494C103.654 42.9494 104.044 43.0329 104.401 43.2C104.758 43.3595 105.069 43.5835 105.335 43.8722C105.6 44.1532 105.805 44.4797 105.949 44.8519C106.093 45.2165 106.166 45.6114 106.166 46.0367C106.166 46.4468 106.093 46.838 105.949 47.2101C105.805 47.5747 105.6 47.9013 105.335 48.1899C105.077 48.4709 104.765 48.6949 104.401 48.862C104.044 49.0215 103.65 49.1013 103.217 49.1013ZM101.066 46.0481C101.066 46.4886 101.161 46.8911 101.35 47.2557C101.548 47.6127 101.81 47.8975 102.136 48.1101C102.462 48.3152 102.823 48.4177 103.217 48.4177C103.612 48.4177 103.972 48.3114 104.299 48.0987C104.625 47.8861 104.887 47.5975 105.084 47.2329C105.281 46.8608 105.38 46.4582 105.38 46.0253C105.38 45.5848 105.281 45.1823 105.084 44.8177C104.887 44.4532 104.625 44.1646 104.299 43.9519C103.972 43.7392 103.612 43.6329 103.217 43.6329C102.823 43.6329 102.462 43.743 102.136 43.9633C101.817 44.1835 101.559 44.476 101.362 44.8405C101.165 45.1975 101.066 45.6 101.066 46.0481Z" fill="white"/>
<path d="M106.891 49.0215V48.3152C107.096 48.3152 107.278 48.262 107.437 48.1557C107.597 48.0418 107.737 47.8519 107.858 47.5861C107.987 47.3203 108.09 46.9557 108.166 46.4924C108.242 46.0215 108.291 45.4253 108.314 44.7038L108.382 43.0519H112.23V48.9873H111.456V43.7468H109.065L109.042 44.7722C109.012 45.5924 108.947 46.2797 108.849 46.8342C108.75 47.381 108.61 47.8139 108.428 48.1329C108.253 48.4519 108.037 48.6797 107.779 48.8165C107.521 48.9532 107.225 49.0215 106.891 49.0215Z" fill="white"/>
<path d="M116.468 49.1013C116.043 49.1013 115.648 49.0215 115.284 48.862C114.927 48.6949 114.616 48.4709 114.351 48.1899C114.093 47.9013 113.892 47.5747 113.747 47.2101C113.603 46.838 113.531 46.4468 113.531 46.0367C113.531 45.6114 113.603 45.2165 113.747 44.8519C113.892 44.4797 114.096 44.1532 114.362 43.8722C114.628 43.5835 114.939 43.3595 115.295 43.2C115.66 43.0329 116.054 42.9494 116.479 42.9494C116.904 42.9494 117.295 43.0329 117.652 43.2C118.008 43.3595 118.32 43.5835 118.585 43.8722C118.851 44.1532 119.056 44.4797 119.2 44.8519C119.344 45.2165 119.416 45.6114 119.416 46.0367C119.416 46.4468 119.344 46.838 119.2 47.2101C119.056 47.5747 118.851 47.9013 118.585 48.1899C118.327 48.4709 118.016 48.6949 117.652 48.862C117.295 49.0215 116.9 49.1013 116.468 49.1013ZM114.316 46.0481C114.316 46.4886 114.411 46.8911 114.601 47.2557C114.798 47.6127 115.06 47.8975 115.386 48.1101C115.713 48.3152 116.073 48.4177 116.468 48.4177C116.862 48.4177 117.223 48.3114 117.549 48.0987C117.876 47.8861 118.137 47.5975 118.335 47.2329C118.532 46.8608 118.631 46.4582 118.631 46.0253C118.631 45.5848 118.532 45.1823 118.335 44.8177C118.137 44.4532 117.876 44.1646 117.549 43.9519C117.223 43.7392 116.862 43.6329 116.468 43.6329C116.073 43.6329 115.713 43.743 115.386 43.9633C115.068 44.1835 114.81 44.476 114.612 44.8405C114.415 45.1975 114.316 45.6 114.316 46.0481Z" fill="white"/>
<path d="M120.699 48.9873V43.0519H124.239V43.7468H121.473V48.9873H120.699Z" fill="white"/>
<path d="M125.312 48.9873V43.0633H126.087V47.9392L129.695 43.0519H130.389V48.9873H129.615V44.1911L126.064 48.9873H125.312Z" fill="white"/>
<path d="M135.475 48.9873V46.5038C135.232 46.6177 134.978 46.7051 134.712 46.7658C134.446 46.819 134.162 46.8456 133.858 46.8456C133.206 46.8456 132.712 46.6785 132.379 46.3443C132.052 46.0101 131.889 45.4975 131.889 44.8063V43.0519H132.663V44.7038C132.663 45.2354 132.769 45.6228 132.982 45.8658C133.202 46.1089 133.551 46.2304 134.029 46.2304C134.295 46.2304 134.56 46.2 134.826 46.1392C135.091 46.0785 135.308 45.9987 135.475 45.9V43.0519H136.249V48.9873H135.475Z" fill="white"/>
<path d="M140.513 49.1013C140.088 49.1013 139.694 49.0215 139.329 48.862C138.965 48.6949 138.65 48.4709 138.385 48.1899C138.119 47.9013 137.91 47.5709 137.758 47.1987C137.614 46.8266 137.542 46.4278 137.542 46.0025C137.542 45.4481 137.667 44.9392 137.918 44.4759C138.176 44.0127 138.529 43.6443 138.976 43.3709C139.424 43.0899 139.933 42.9494 140.502 42.9494C141.086 42.9494 141.595 43.0899 142.027 43.3709C142.467 43.6519 142.812 44.0241 143.063 44.4873C143.313 44.943 143.439 45.4443 143.439 45.9911C143.439 46.0519 143.439 46.1127 143.439 46.1734C143.439 46.2266 143.435 46.2684 143.427 46.2987H138.35C138.388 46.7241 138.506 47.1038 138.703 47.438C138.908 47.7646 139.17 48.0266 139.489 48.2241C139.815 48.4139 140.168 48.5089 140.547 48.5089C140.934 48.5089 141.299 48.4101 141.64 48.2127C141.989 48.0152 142.232 47.757 142.369 47.438L143.04 47.6203C142.919 47.9013 142.733 48.1557 142.482 48.3835C142.232 48.6114 141.936 48.7899 141.595 48.919C141.261 49.0405 140.9 49.1013 140.513 49.1013ZM138.328 45.7405H142.71C142.68 45.3076 142.562 44.9278 142.357 44.6013C142.16 44.2747 141.898 44.0203 141.572 43.838C141.253 43.6481 140.9 43.5532 140.513 43.5532C140.126 43.5532 139.773 43.6481 139.454 43.838C139.136 44.0203 138.874 44.2785 138.669 44.6127C138.472 44.9392 138.358 45.3152 138.328 45.7405Z" fill="white"/>
<path d="M147.205 49.1013C146.773 49.1013 146.374 49.0215 146.01 48.862C145.653 48.6949 145.339 48.4671 145.065 48.1785C144.8 47.8899 144.591 47.5595 144.439 47.1873C144.295 46.8152 144.223 46.4203 144.223 46.0025C144.223 45.4405 144.348 44.9278 144.599 44.4646C144.849 44.0013 145.198 43.6329 145.646 43.3595C146.094 43.0861 146.61 42.9494 147.194 42.9494C147.748 42.9494 148.237 43.0785 148.662 43.3367C149.087 43.5873 149.402 43.9291 149.607 44.362L148.856 44.6013C148.689 44.2975 148.454 44.062 148.15 43.8949C147.854 43.7203 147.524 43.6329 147.16 43.6329C146.765 43.6329 146.405 43.7354 146.078 43.9405C145.752 44.1456 145.49 44.4266 145.293 44.7835C145.103 45.1405 145.008 45.5468 145.008 46.0025C145.008 46.4506 145.107 46.857 145.304 47.2215C145.502 47.5861 145.764 47.8785 146.09 48.0987C146.416 48.3114 146.777 48.4177 147.171 48.4177C147.429 48.4177 147.676 48.3722 147.911 48.281C148.154 48.1899 148.363 48.0684 148.537 47.9165C148.719 47.757 148.841 47.5861 148.901 47.4038L149.664 47.6316C149.558 47.9127 149.38 48.1671 149.129 48.3949C148.886 48.6152 148.598 48.7899 148.264 48.919C147.938 49.0405 147.585 49.1013 147.205 49.1013Z" fill="white"/>
<path d="M150.869 48.9873V43.0519H151.643V45.5924H152.531L154.523 43.0519H155.411L153.145 45.9342L155.695 48.9873H154.785L152.531 46.3101H151.643V48.9873H150.869Z" fill="white"/>
<path d="M156.294 47.2785C156.294 46.9063 156.4 46.5873 156.612 46.3215C156.825 46.0481 157.117 45.8392 157.489 45.6949C157.868 45.543 158.305 45.4671 158.798 45.4671C159.086 45.4671 159.386 45.4899 159.697 45.5354C160.008 45.581 160.285 45.6494 160.528 45.7405V45.2392C160.528 44.738 160.38 44.3392 160.084 44.043C159.788 43.7468 159.378 43.5987 158.855 43.5987C158.536 43.5987 158.221 43.6595 157.91 43.781C157.607 43.8949 157.288 44.0658 156.954 44.2937L156.658 43.7468C157.045 43.481 157.424 43.2835 157.796 43.1544C158.168 43.0177 158.548 42.9494 158.935 42.9494C159.663 42.9494 160.24 43.1582 160.665 43.5759C161.09 43.9937 161.302 44.5709 161.302 45.3076V48.0532C161.302 48.1595 161.325 48.2392 161.371 48.2924C161.416 48.338 161.488 48.3646 161.587 48.3722V48.9873C161.503 48.9949 161.431 49.0025 161.371 49.0101C161.31 49.0177 161.264 49.0177 161.234 49.0101C161.044 49.0025 160.9 48.9418 160.801 48.8279C160.703 48.7139 160.65 48.5924 160.642 48.4633L160.631 48.0304C160.365 48.3722 160.02 48.638 159.595 48.8279C159.17 49.0101 158.737 49.1013 158.297 49.1013C157.918 49.1013 157.572 49.0215 157.261 48.862C156.958 48.6949 156.719 48.4747 156.544 48.2013C156.377 47.9203 156.294 47.6127 156.294 47.2785ZM160.266 47.7342C160.35 47.6278 160.414 47.5253 160.46 47.4266C160.505 47.3279 160.528 47.2405 160.528 47.1646V46.2987C160.27 46.2 160.001 46.1241 159.72 46.0709C159.447 46.0177 159.17 45.9911 158.889 45.9911C158.335 45.9911 157.887 46.1013 157.546 46.3215C157.204 46.5418 157.034 46.8418 157.034 47.2215C157.034 47.4418 157.09 47.6506 157.204 47.8481C157.318 48.038 157.485 48.1975 157.705 48.3266C157.925 48.4481 158.183 48.5089 158.479 48.5089C158.851 48.5089 159.196 48.4367 159.515 48.2924C159.841 48.1481 160.092 47.962 160.266 47.7342Z" fill="white"/>
<path d="M162.531 48.9873L164.295 46.5608C163.893 46.5 163.567 46.3253 163.316 46.0367C163.073 45.7405 162.952 45.338 162.952 44.8291C162.952 44.4873 163.032 44.1835 163.191 43.9177C163.35 43.6519 163.574 43.4392 163.863 43.2797C164.158 43.1203 164.504 43.0405 164.898 43.0405H167.164V48.9873H166.39V46.6861H165.069L163.396 48.9873H162.531ZM164.887 46.0937H166.39V43.6557H165.024C164.629 43.6557 164.314 43.7696 164.079 43.9975C163.844 44.2177 163.726 44.4987 163.726 44.8405C163.726 45.1899 163.821 45.4861 164.01 45.7291C164.208 45.9721 164.5 46.0937 164.887 46.0937Z" fill="white"/>
<path d="M171.756 48.9873V43.0519H172.53V45.5924H173.418L175.41 43.0519H176.298L174.033 45.9342L176.583 48.9873H175.672L173.418 46.3101H172.53V48.9873H171.756Z" fill="white"/>
<path d="M177.112 49.0215V48.3152C177.317 48.3152 177.499 48.262 177.659 48.1557C177.818 48.0418 177.958 47.8519 178.08 47.5861C178.209 47.3203 178.311 46.9557 178.387 46.4924C178.463 46.0215 178.512 45.4253 178.535 44.7038L178.603 43.0519H182.451V48.9873H181.677V43.7468H179.286L179.264 44.7722C179.233 45.5924 179.169 46.2797 179.07 46.8342C178.972 47.381 178.831 47.8139 178.649 48.1329C178.474 48.4519 178.258 48.6797 178 48.8165C177.742 48.9532 177.446 49.0215 177.112 49.0215Z" fill="white"/>
<path d="M184.151 48.9873V43.0633H184.925V47.9392L188.533 43.0519H189.228V48.9873H188.454V44.1911L184.902 48.9873H184.151Z" fill="white"/>
<path d="M190.91 48.9873V43.0519H191.684V45.6038H195.076V43.0519H195.85V48.9873H195.076V46.2987H191.684V48.9873H190.91Z" fill="white"/>
<path d="M197.546 48.9873V43.0633H198.32V47.9392L201.928 43.0519H202.623V48.9873H201.849V44.1911L198.297 48.9873H197.546Z" fill="white"/>
<path d="M204.305 48.9873V43.0519H205.079V45.5924H205.967L207.959 43.0519H208.846L206.581 45.9342L209.131 48.9873H208.22L205.967 46.3101H205.079V48.9873H204.305Z" fill="white"/>
<path d="M209.729 47.2785C209.729 46.9063 209.836 46.5873 210.048 46.3215C210.261 46.0481 210.553 45.8392 210.925 45.6949C211.304 45.543 211.741 45.4671 212.234 45.4671C212.522 45.4671 212.822 45.4899 213.133 45.5354C213.444 45.581 213.721 45.6494 213.964 45.7405V45.2392C213.964 44.738 213.816 44.3392 213.52 44.043C213.224 43.7468 212.814 43.5987 212.291 43.5987C211.972 43.5987 211.657 43.6595 211.346 43.781C211.042 43.8949 210.724 44.0658 210.39 44.2937L210.094 43.7468C210.481 43.481 210.86 43.2835 211.232 43.1544C211.604 43.0177 211.983 42.9494 212.37 42.9494C213.099 42.9494 213.676 43.1582 214.101 43.5759C214.526 43.9937 214.738 44.5709 214.738 45.3076V48.0532C214.738 48.1595 214.761 48.2392 214.806 48.2924C214.852 48.338 214.924 48.3646 215.023 48.3722V48.9873C214.939 48.9949 214.867 49.0025 214.806 49.0101C214.746 49.0177 214.7 49.0177 214.67 49.0101C214.48 49.0025 214.336 48.9418 214.237 48.8279C214.139 48.7139 214.085 48.5924 214.078 48.4633L214.066 48.0304C213.801 48.3722 213.456 48.638 213.031 48.8279C212.606 49.0101 212.173 49.1013 211.733 49.1013C211.353 49.1013 211.008 49.0215 210.697 48.862C210.394 48.6949 210.154 48.4747 209.98 48.2013C209.813 47.9203 209.729 47.6127 209.729 47.2785ZM213.702 47.7342C213.786 47.6278 213.85 47.5253 213.896 47.4266C213.941 47.3279 213.964 47.2405 213.964 47.1646V46.2987C213.706 46.2 213.437 46.1241 213.156 46.0709C212.883 46.0177 212.606 45.9911 212.325 45.9911C211.771 45.9911 211.323 46.1013 210.982 46.3215C210.64 46.5418 210.469 46.8418 210.469 47.2215C210.469 47.4418 210.526 47.6506 210.64 47.8481C210.754 48.038 210.921 48.1975 211.141 48.3266C211.361 48.4481 211.619 48.5089 211.915 48.5089C212.287 48.5089 212.632 48.4367 212.951 48.2924C213.277 48.1481 213.528 47.962 213.702 47.7342Z" fill="white"/>
</svg>
