<svg width="20" height="20" viewBox="0 0 20 20" fill="none" xmlns="http://www.w3.org/2000/svg">
<path d="M8.07692 14.3593C4.61046 14.3593 1.79076 11.5411 1.79076 8.07685C1.79076 4.61038 4.61046 1.79072 8.07692 1.79072C11.5434 1.79072 14.3638 4.61038 14.3638 8.07685C14.3638 11.5411 11.5434 14.3593 8.07692 14.3593ZM18.8657 17.6065L14.3836 13.1244C15.5261 11.6966 16.1546 9.90798 16.1546 8.07685C16.1546 3.62332 12.5312 -8.39233e-05 8.07692 -8.39233e-05C3.62338 -8.39233e-05 0 3.62332 0 8.07685C0 12.5311 3.62338 16.1545 8.07692 16.1545C9.90879 16.1545 11.6959 15.5275 13.1201 14.3872L17.6029 18.8656C17.7716 19.0343 17.996 19.1274 18.2343 19.1274C18.4719 19.1274 18.6963 19.0343 18.865 18.8656C19.0344 18.6984 19.1275 18.4748 19.1275 18.2357C19.1275 17.9966 19.0344 17.7737 18.8657 17.6065Z" fill="#3C3238"/>
</svg>
