<svg width="12" height="20" viewBox="0 0 12 20" fill="none" xmlns="http://www.w3.org/2000/svg">
<path d="M6.08689 0C3.1389 0 0.749135 2.32042 0.749135 5.18271C0.749135 8.04508 3.1389 10.3657 6.08689 10.3657C9.03489 10.3657 11.4246 8.04508 11.4246 5.18271C11.4246 2.32042 9.03489 0 6.08689 0ZM6.08689 7.32528C4.86829 7.32528 3.88038 6.36599 3.88038 5.18279C3.88038 3.99959 4.86829 3.04037 6.08689 3.04037C7.30549 3.04037 8.2934 3.99959 8.2934 5.18279C8.2934 6.36599 7.30549 7.32528 6.08689 7.32528Z" fill="white"/>
<path d="M7.97135 14.4895C10.1083 14.0669 11.3888 13.0843 11.4566 13.0315C12.0819 12.5446 12.1823 11.6577 11.6808 11.0505C11.1794 10.4434 10.2661 10.3458 9.64063 10.8327C9.62742 10.8431 8.26162 11.8604 6.0144 11.8618C3.76725 11.8604 2.37258 10.8431 2.35937 10.8327C1.73391 10.3458 0.820554 10.4434 0.319152 11.0505C-0.182328 11.6577 -0.0818787 12.5446 0.543424 13.0315C0.612095 13.085 1.9455 14.0932 4.14231 14.5059L1.08065 17.6127C0.524251 18.1729 0.540979 19.065 1.11801 19.6053C1.39964 19.8689 1.76263 20 2.12532 20C2.50557 20 2.88544 19.8557 3.17021 19.5689L6.01448 16.6271L9.14603 19.588C9.71343 20.138 10.6322 20.1371 11.1985 19.5864C11.7649 19.0357 11.7642 18.1434 11.1969 17.5935L7.97135 14.4895Z" fill="white"/>
<path d="M6.0144 11.8618C6.01081 11.8618 6.01791 11.8618 6.0144 11.8619C6.01088 11.8618 6.01799 11.8618 6.0144 11.8618Z" fill="white"/>
</svg>
