<svg width="44" height="50" viewBox="0 0 44 50" fill="none" xmlns="http://www.w3.org/2000/svg">
<path d="M15.8203 0.0390625C18.8465 -0.163823 19.2318 0.415346 21.7949 2.04492C29.5246 -2.93336 30.1103 3.07854 33.2656 8.98926C35.0818 9.32736 40.5944 10.3676 40.7627 12.5156C40.0605 14.0257 35.7351 15.063 34.5449 16.2383C34.6964 16.0947 33.1684 21.459 33.1084 21.6611C35.6656 21.8267 38.9904 20.915 40.1719 23.6123C40.1176 24.8592 37.1335 31.1897 36.3857 32.9492C39.7637 35.3933 46.0641 44.166 42.7168 48.6826C41.4729 50.3601 32.6544 49.7955 30.082 49.7637L12.6533 49.8223C6.84114 49.8382 -2.15575 51.6482 0.46875 43.3691C2.07984 38.2875 2.64942 36.2671 7.11523 33.0439C6.10849 30.6176 2.68816 24.5228 3.85156 22.4941C5.62099 21.3752 8.00879 21.6919 10.1768 21.707C9.63784 19.4006 9.47168 18.3029 9.28223 15.9414C6.90141 15.2077 4.26263 14.8513 3.67285 12.1748C4.41799 9.80768 8.23129 9.42582 10.3555 9.11328C11.8578 5.30972 12.8644 2.90888 15.8203 0.0390625ZM30.4424 28.2959C26.0821 30.4173 22.5172 31.7411 24.0107 37.584C24.6619 40.1299 25.3776 42.8479 25.8232 45.4365L26.2969 45.7529C27.0842 44.8648 30.5674 30.4874 30.8975 28.6855L30.4424 28.2959ZM12.5303 28.2461C13.0122 31.1401 15.7294 43.0988 16.7676 45.7119L17.2041 45.7139L17.7568 44.3438C19.9053 35.7637 22.8384 31.6294 12.5303 28.2461ZM30.8291 17.1748C29.9829 16.9623 14.4093 16.8185 12.1357 16.8936C13.299 23.4294 17.4484 22.8523 21.6113 19.3711C21.8958 19.1337 22.4799 19.5568 22.793 19.7236C24.9478 22.0397 25.5524 21.9113 28.4941 21.7783C29.9143 20.8898 31.8208 18.889 30.8291 17.1748Z" fill="#B7141B"/>
</svg>
