<svg width="27" height="50" viewBox="0 0 27 50" fill="none" xmlns="http://www.w3.org/2000/svg">
<path d="M11.9636 30.5472H7.75336C3.42524 30.5472 1.26123 30.5472 0.354931 29.1249C-0.551367 27.7024 0.357788 25.7331 2.1761 21.794L10.5694 3.61271C11.7193 1.1219 12.2939 -0.123501 12.8971 0.00966226C13.5 0.142856 13.5 1.51526 13.5 4.2601V17.9119C13.5 18.6383 13.5 19.0016 13.725 19.2272C13.9499 19.4528 14.3122 19.4528 15.0365 19.4528H19.2467C23.5749 19.4528 25.7389 19.4528 26.6451 20.875C27.5513 22.2976 26.6423 24.2668 24.8241 28.2056L16.4307 46.3871C15.2808 48.8781 14.7062 50.1235 14.1029 49.9903C13.5 49.8572 13.5 48.4846 13.5 45.74V32.0881C13.5 31.3617 13.5 30.9983 13.2751 30.7728C13.0502 30.5472 12.6879 30.5472 11.9636 30.5472Z" fill="#B7141B"/>
</svg>
