<svg width="43" height="50" viewBox="0 0 43 50" fill="none" xmlns="http://www.w3.org/2000/svg">
<path d="M40.7368 45.4545H39.6053V7.95455C39.6211 7.50258 39.5441 7.05219 39.3791 6.6314C39.2141 6.21061 38.9646 5.82842 38.6461 5.50864C38.3277 5.18886 37.9471 4.93831 37.5281 4.77261C37.1091 4.6069 36.6606 4.52958 36.2105 4.54545H28.2895V2.27273C28.2895 1.66996 28.051 1.09189 27.6266 0.665666C27.2022 0.239447 26.6265 0 26.0263 0H16.9737C16.3735 0 15.7978 0.239447 15.3734 0.665666C14.949 1.09189 14.7105 1.66996 14.7105 2.27273V4.54545H6.78947C6.33941 4.52958 5.89091 4.6069 5.4719 4.77261C5.05288 4.93831 4.6723 5.18886 4.35387 5.50864C4.03543 5.82842 3.78594 6.21061 3.62093 6.6314C3.45593 7.05219 3.37893 7.50258 3.39474 7.95455V45.4545H2.26316C1.66293 45.4545 1.08729 45.694 0.662863 46.1202C0.238439 46.5464 0 47.1245 0 47.7273C0 48.33 0.238439 48.9081 0.662863 49.3343C1.08729 49.7606 1.66293 50 2.26316 50H40.7368C41.3371 50 41.9127 49.7606 42.3371 49.3343C42.7616 48.9081 43 48.33 43 47.7273C43 47.1245 42.7616 46.5464 42.3371 46.1202C41.9127 45.694 41.3371 45.4545 40.7368 45.4545ZM18.1053 5.68182H20.3684V3.40909C20.3684 3.10771 20.4876 2.81867 20.6999 2.60556C20.9121 2.39245 21.1999 2.27273 21.5 2.27273C21.8001 2.27273 22.0879 2.39245 22.3001 2.60556C22.5124 2.81867 22.6316 3.10771 22.6316 3.40909V5.68182H24.8947C25.1949 5.68182 25.4827 5.80154 25.6949 6.01465C25.9071 6.22776 26.0263 6.5168 26.0263 6.81818C26.0263 7.11956 25.9071 7.4086 25.6949 7.62171C25.4827 7.83482 25.1949 7.95455 24.8947 7.95455H22.6316V10.2273C22.6316 10.5287 22.5124 10.8177 22.3001 11.0308C22.0879 11.2439 21.8001 11.3636 21.5 11.3636C21.1999 11.3636 20.9121 11.2439 20.6999 11.0308C20.4876 10.8177 20.3684 10.5287 20.3684 10.2273V7.95455H18.1053C17.8052 7.95455 17.5173 7.83482 17.3051 7.62171C17.0929 7.4086 16.9737 7.11956 16.9737 6.81818C16.9737 6.5168 17.0929 6.22776 17.3051 6.01465C17.5173 5.80154 17.8052 5.68182 18.1053 5.68182ZM12.4474 15.9091H19.2368V22.7273H12.4474V15.9091ZM12.4474 26.1364H19.2368V32.9545H12.4474V26.1364ZM24.8947 45.4545H18.1053V37.5H24.8947V45.4545ZM30.5526 32.9545H23.7632V26.1364H30.5526V32.9545ZM30.5526 22.7273H23.7632V15.9091H30.5526V22.7273Z" fill="#B7141B"/>
</svg>
