<svg width="47" height="50" viewBox="0 0 47 50" fill="none" xmlns="http://www.w3.org/2000/svg">
<path fill-rule="evenodd" clip-rule="evenodd" d="M12.5795 32.8192C12.3382 33.6397 12.322 34.6211 12.6833 35.7931C12.8059 35.7814 12.9301 35.7755 13.0556 35.7755C15.2187 35.7755 16.9722 37.5552 16.9722 39.7506C16.9722 41.946 15.2187 43.7257 13.0556 43.7257C10.8924 43.7257 9.13889 41.946 9.13889 39.7506C9.13889 38.6437 9.58473 37.6423 10.3041 36.9215C9.70302 35.1911 9.63879 33.5586 10.076 32.0717C10.0857 32.0389 10.0956 32.0061 10.1058 31.9735C4.62443 33.9492 0 37.0969 0 41.4067V50H47V41.4067C47 37.1355 42.4582 34.0058 37.0416 32.027C37.3079 32.7903 37.4594 33.6029 37.488 34.4602H37.7843C38.085 34.4602 38.3764 34.5646 38.6095 34.7561L41.2973 36.9645C41.6014 37.2143 41.7778 37.5886 41.7778 37.9839V43.7257C41.7778 44.4522 41.1933 45.041 40.4722 45.041H37.7843V42.4104H39.1667V38.6084L37.3194 37.0908H37.2142C37.2022 37.1425 37.1898 37.1945 37.177 37.2465L36.5537 37.0908H34.4861L32.6389 38.6084V42.4104H34.0212V45.041H31.3333C30.6123 45.041 30.0278 44.4522 30.0278 43.7257V37.9839C30.0278 37.5886 30.2042 37.2143 30.5082 36.9645L33.1961 34.7561C33.4291 34.5646 33.7205 34.4602 34.0212 34.4602H34.8748C34.8424 33.7862 34.7021 33.1834 34.4815 32.6438C34.2174 31.9977 33.8234 31.4055 33.3102 30.8703C33.1393 30.8259 32.9683 30.7825 32.7974 30.7403C32.1409 30.5777 31.4677 30.9102 31.1696 31.5255H25.8637C24.7035 31.5257 24.1128 31.5258 23.5325 31.5256C22.9305 31.5256 22.3396 31.5256 21.136 31.5259L15.8304 31.5255C15.5323 30.9102 14.859 30.5777 14.2026 30.7403C14.0564 30.7764 13.9099 30.8134 13.7637 30.8513C13.1852 31.4514 12.788 32.1105 12.5795 32.8192ZM14.3611 39.7506C14.3611 40.5115 13.7585 41.0951 13.0556 41.0951C12.3526 41.0951 11.75 40.5115 11.75 39.7506C11.75 38.9897 12.3526 38.4061 13.0556 38.4061C13.7585 38.4061 14.3611 38.9897 14.3611 39.7506Z" fill="#B7141B"/>
<path d="M7.83333 19.9747C7.83333 26.0609 18.7389 27.6214 18.7389 27.6214C18.7389 27.6214 11.2693 15.9174 15.0041 13.8887C18.7389 11.86 28.8976 7.95865 29.6446 9.36313C36.5165 19.3506 27.7025 27.6214 27.7025 27.6214C27.7025 27.6214 37.8611 26.685 37.8611 19.9747C37.8611 13.2645 33.0806 5.14975 33.0806 5.14975C33.0806 5.14975 29.6446 0 22.9219 0C16.1993 0 13.809 5.14975 13.809 5.14975C13.809 5.14975 7.83333 13.8887 7.83333 19.9747Z" fill="#B7141B"/>
</svg>
