<svg width="71" height="50" viewBox="0 0 71 50" fill="none" xmlns="http://www.w3.org/2000/svg">
<path d="M58.9008 10.6702L49.0024 20.6254L39.104 10.6702C37.9386 9.49797 37.2838 7.90815 37.2838 6.25043V5.97007C37.2838 2.6729 39.9415 0 43.2197 0C45.0231 0 46.7285 0.824411 47.855 2.24059L49.0024 3.6831L50.1499 2.24059C51.2763 0.824411 52.9818 0 54.7851 0C58.0634 0 60.7211 2.6729 60.7211 5.97007V6.25043C60.7211 7.90815 60.0663 9.49797 58.9008 10.6702Z" fill="#B7141B"/>
<path fill-rule="evenodd" clip-rule="evenodd" d="M17.2351 42.5553V21.1023H26.833C30.9046 21.8338 34.9683 24.0523 39.0399 26.6286H46.4953C49.8712 26.8353 51.6342 30.2703 48.3611 32.5285C45.7442 34.4528 42.2972 34.3494 38.7632 34.0313C36.3282 33.9121 36.2175 37.204 38.7632 37.2199C39.6487 37.2914 40.6053 37.0767 41.4434 37.0767C45.8549 37.0688 49.4917 36.2259 51.7133 32.7193L52.828 30.0954L63.9123 24.5691C69.4623 22.7323 73.3995 28.5687 69.3121 32.6239C61.2796 38.5 53.0494 43.3345 44.6216 47.2387C38.5023 50.9838 32.3831 50.8566 26.2717 47.2387L17.2351 42.5553ZM0 19.0429H14.3494V44.7181H0V19.0429Z" fill="#B7141B"/>
</svg>
