<svg width="47" height="50" viewBox="0 0 47 50" fill="none" xmlns="http://www.w3.org/2000/svg">
<path fill-rule="evenodd" clip-rule="evenodd" d="M37.3316 34.4452H46.6645V31.3342H37.3316V34.4452ZM43.5535 15.7794H0V46.889C0 48.6063 1.39371 50 3.11097 50H43.5535C45.2708 50 46.6645 48.6063 46.6645 46.889V37.5561H35.7761C34.9175 37.5561 34.2206 36.8608 34.2206 36.0006V29.7787C34.2206 28.9201 34.9175 28.2232 35.7761 28.2232H46.6645V18.8903C46.6645 17.1731 45.2708 15.7794 43.5535 15.7794ZM43.5535 1.78001C43.5535 0.919827 43.1864 0.44383 42.3869 0.128067C41.771 -0.116144 41.1721 0.0300899 40.4426 0.224525L0 12.6684H43.5535V1.78001Z" fill="#B7141B"/>
</svg>
