<svg width="50" height="50" viewBox="0 0 50 50" fill="none" xmlns="http://www.w3.org/2000/svg">
<path d="M25 0C28.125 0 30.6562 3.42708 33.4271 4.60417C36.1979 5.78125 40.5312 5.13542 42.6354 7.36458C44.7396 9.59375 44.2083 13.6875 45.3958 16.5729C46.5833 19.4583 50 21.875 50 25C50 28.125 46.5729 30.6562 45.3958 33.4271C44.2188 36.1979 44.8646 40.5312 42.6354 42.6354C40.4062 44.7396 36.3125 44.2292 33.4271 45.3958C30.5417 46.5625 28.125 50 25 50C21.875 50 19.3438 46.5729 16.5729 45.3958C13.8021 44.2188 9.46875 44.8646 7.36458 42.6354C5.26042 40.4062 5.77083 36.3125 4.60417 33.4271C3.4375 30.5417 0 28.125 0 25C0 21.875 3.42708 19.3438 4.60417 16.5729C5.78125 13.8021 5.13542 9.46875 7.36458 7.36458C9.59375 5.26042 13.6875 5.77083 16.5729 4.60417C19.4583 3.4375 21.875 0 25 0ZM25 7.89583C21.6171 7.89583 18.3102 8.89898 15.4974 10.7784C12.6847 12.6578 10.4924 15.3291 9.19781 18.4545C7.90324 21.5799 7.56452 25.019 8.22448 28.3369C8.88445 31.6547 10.5135 34.7024 12.9055 37.0945C15.2976 39.4865 18.3453 41.1155 21.6631 41.7755C24.981 42.4355 28.4201 42.0968 31.5455 40.8022C34.6709 39.5076 37.3422 37.3153 39.2216 34.5026C41.101 31.6898 42.1042 28.3829 42.1042 25C42.0904 20.4679 40.284 16.1254 37.0793 12.9207C33.8746 9.71602 29.5321 7.90957 25 7.89583ZM32.9375 17.4271L34.6146 19.0104C34.7861 19.2367 34.8789 19.5129 34.8789 19.7969C34.8789 20.0808 34.7861 20.357 34.6146 20.5833L24.0417 32.3646C23.8326 32.6016 23.5741 32.7898 23.2843 32.9158C22.9944 33.0418 22.6805 33.1025 22.3646 33.0938C22.0502 33.092 21.7395 33.0265 21.4513 32.9011C21.163 32.7758 20.9032 32.5933 20.6875 32.3646L14.9688 26.6667C14.864 26.5769 14.7781 26.4672 14.7161 26.344C14.6541 26.2208 14.6171 26.0865 14.6075 25.9489C14.5978 25.8112 14.6155 25.6731 14.6596 25.5424C14.7038 25.4117 14.7734 25.2911 14.8646 25.1875L14.9688 25.0729L16.6667 23.5C16.8712 23.28 17.1538 23.1492 17.4538 23.1355C17.7539 23.1219 18.0472 23.2266 18.2708 23.4271L18.3438 23.5L22.3958 27.6667L31.3438 17.4583C31.5534 17.2473 31.8369 17.126 32.1343 17.1201C32.4317 17.1143 32.7198 17.2244 32.9375 17.4271Z" fill="#B7141B"/>
</svg>
