<svg width="23" height="23" viewBox="0 0 23 23" fill="none" xmlns="http://www.w3.org/2000/svg">
<path d="M22.0959 3.09595C22.0959 1.4391 20.7528 0.0959473 19.0959 0.0959473H15.0959C14.5436 0.0959473 14.0959 0.543667 14.0959 1.09595C14.0959 1.64823 14.5436 2.09595 15.0959 2.09595H19.0959C19.6482 2.09595 20.0959 2.54367 20.0959 3.09595V7.09595C20.0959 7.64823 20.5436 8.09595 21.0959 8.09595C21.6482 8.09595 22.0959 7.64823 22.0959 7.09595V3.09595Z" fill="#3C3238"/>
<path d="M22.0959 15.0959C22.0959 14.5436 21.6482 14.0959 21.0959 14.0959C20.5436 14.0959 20.0959 14.5436 20.0959 15.0959V19.0959C20.0959 19.6482 19.6482 20.0959 19.0959 20.0959H15.0959C14.5436 20.0959 14.0959 20.5436 14.0959 21.0959C14.0959 21.6482 14.5436 22.0959 15.0959 22.0959H19.0959C20.7528 22.0959 22.0959 20.7528 22.0959 19.0959V15.0959Z" fill="#3C3238"/>
<path d="M3.09595 20.0959C2.54367 20.0959 2.09595 19.6482 2.09595 19.0959V15.0959C2.09595 14.5436 1.64823 14.0959 1.09595 14.0959C0.543667 14.0959 0.0959473 14.5436 0.0959473 15.0959V19.0959C0.0959473 20.7528 1.4391 22.0959 3.09595 22.0959H7.09595C7.64823 22.0959 8.09595 21.6482 8.09595 21.0959C8.09595 20.5436 7.64823 20.0959 7.09595 20.0959H3.09595Z" fill="#3C3238"/>
<path d="M0.0959473 7.09595C0.0959473 7.64823 0.543667 8.09595 1.09595 8.09595C1.64823 8.09595 2.09595 7.64823 2.09595 7.09595V3.09595C2.09595 2.54367 2.54367 2.09595 3.09595 2.09595H7.09595C7.64823 2.09595 8.09595 1.64823 8.09595 1.09595C8.09595 0.543667 7.64823 0.0959473 7.09595 0.0959473H3.09595C1.4391 0.0959473 0.0959473 1.4391 0.0959473 3.09595V7.09595Z" fill="#3C3238"/>
<path fill-rule="evenodd" clip-rule="evenodd" d="M10.0959 5.09595C10.0959 4.54367 9.64825 4.09595 9.09595 4.09595H5.09595C4.54367 4.09595 4.09595 4.54367 4.09595 5.09595V9.09595C4.09595 9.64825 4.54367 10.0959 5.09595 10.0959H9.09595C9.64825 10.0959 10.0959 9.64825 10.0959 9.09595V5.09595ZM8.09595 6.59595C8.09595 6.31981 7.87209 6.09595 7.59595 6.09595H6.59595C6.31981 6.09595 6.09595 6.31981 6.09595 6.59595V7.59595C6.09595 7.87209 6.31981 8.09595 6.59595 8.09595H7.59595C7.87209 8.09595 8.09595 7.87209 8.09595 7.59595V6.59595Z" fill="#3C3238"/>
<path fill-rule="evenodd" clip-rule="evenodd" d="M17.0959 12.0959C17.6482 12.0959 18.0959 12.5436 18.0959 13.0959V17.0959C18.0959 17.6482 17.6482 18.0959 17.0959 18.0959H13.0959C12.5436 18.0959 12.0959 17.6482 12.0959 17.0959V13.0959C12.0959 12.5436 12.5436 12.0959 13.0959 12.0959H17.0959ZM14.0959 14.5959C14.0959 14.3198 14.3198 14.0959 14.5959 14.0959H15.5959C15.872 14.0959 16.0959 14.3198 16.0959 14.5959V15.5959C16.0959 15.872 15.872 16.0959 15.5959 16.0959H14.5959C14.3198 16.0959 14.0959 15.872 14.0959 15.5959V14.5959Z" fill="#3C3238"/>
<path d="M13.0959 4.09595C12.5436 4.09595 12.0959 4.54367 12.0959 5.09595C12.0959 5.64824 12.5436 6.09595 13.0959 6.09595H15.5959C15.872 6.09595 16.0959 6.31981 16.0959 6.59595V9.09595C16.0959 9.64825 16.5436 10.0959 17.0959 10.0959C17.6482 10.0959 18.0959 9.64825 18.0959 9.09595V5.09595C18.0959 4.54367 17.6482 4.09595 17.0959 4.09595H13.0959Z" fill="#3C3238"/>
<path d="M13.0959 7.09595C12.5436 7.09595 12.0959 7.54366 12.0959 8.09595V9.09595C12.0959 9.64825 12.5436 10.0959 13.0959 10.0959C13.6482 10.0959 14.0959 9.64825 14.0959 9.09595V8.09595C14.0959 7.54367 13.6482 7.09595 13.0959 7.09595Z" fill="#3C3238"/>
<path d="M5.09595 12.0959C4.54367 12.0959 4.09595 12.5436 4.09595 13.0959V15.0959C4.09595 15.6482 4.54367 16.0959 5.09595 16.0959C5.64824 16.0959 6.09595 15.6482 6.09595 15.0959V14.5959C6.09595 14.3198 6.31981 14.0959 6.59595 14.0959H9.09595C9.64825 14.0959 10.0959 13.6482 10.0959 13.0959C10.0959 12.5436 9.64825 12.0959 9.09595 12.0959H5.09595Z" fill="#3C3238"/>
<path d="M9.09595 16.0959C8.54366 16.0959 8.09595 16.5436 8.09595 17.0959C8.09595 17.6482 8.54366 18.0959 9.09595 18.0959C9.64825 18.0959 10.0959 17.6482 10.0959 17.0959C10.0959 16.5436 9.64825 16.0959 9.09595 16.0959Z" fill="#3C3238"/>
<path d="M22.0959 3.09595C22.0959 1.4391 20.7528 0.0959473 19.0959 0.0959473H15.0959C14.5436 0.0959473 14.0959 0.543667 14.0959 1.09595C14.0959 1.64823 14.5436 2.09595 15.0959 2.09595H19.0959C19.6482 2.09595 20.0959 2.54367 20.0959 3.09595V7.09595C20.0959 7.64823 20.5436 8.09595 21.0959 8.09595C21.6482 8.09595 22.0959 7.64823 22.0959 7.09595V3.09595Z" stroke="#3C3238" stroke-width="0.19209"/>
<path d="M22.0959 15.0959C22.0959 14.5436 21.6482 14.0959 21.0959 14.0959C20.5436 14.0959 20.0959 14.5436 20.0959 15.0959V19.0959C20.0959 19.6482 19.6482 20.0959 19.0959 20.0959H15.0959C14.5436 20.0959 14.0959 20.5436 14.0959 21.0959C14.0959 21.6482 14.5436 22.0959 15.0959 22.0959H19.0959C20.7528 22.0959 22.0959 20.7528 22.0959 19.0959V15.0959Z" stroke="#3C3238" stroke-width="0.19209"/>
<path d="M3.09595 20.0959C2.54367 20.0959 2.09595 19.6482 2.09595 19.0959V15.0959C2.09595 14.5436 1.64823 14.0959 1.09595 14.0959C0.543667 14.0959 0.0959473 14.5436 0.0959473 15.0959V19.0959C0.0959473 20.7528 1.4391 22.0959 3.09595 22.0959H7.09595C7.64823 22.0959 8.09595 21.6482 8.09595 21.0959C8.09595 20.5436 7.64823 20.0959 7.09595 20.0959H3.09595Z" stroke="#3C3238" stroke-width="0.19209"/>
<path d="M0.0959473 7.09595C0.0959473 7.64823 0.543667 8.09595 1.09595 8.09595C1.64823 8.09595 2.09595 7.64823 2.09595 7.09595V3.09595C2.09595 2.54367 2.54367 2.09595 3.09595 2.09595H7.09595C7.64823 2.09595 8.09595 1.64823 8.09595 1.09595C8.09595 0.543667 7.64823 0.0959473 7.09595 0.0959473H3.09595C1.4391 0.0959473 0.0959473 1.4391 0.0959473 3.09595V7.09595Z" stroke="#3C3238" stroke-width="0.19209"/>
<path fill-rule="evenodd" clip-rule="evenodd" d="M10.0959 5.09595C10.0959 4.54367 9.64825 4.09595 9.09595 4.09595H5.09595C4.54367 4.09595 4.09595 4.54367 4.09595 5.09595V9.09595C4.09595 9.64825 4.54367 10.0959 5.09595 10.0959H9.09595C9.64825 10.0959 10.0959 9.64825 10.0959 9.09595V5.09595ZM8.09595 6.59595C8.09595 6.31981 7.87209 6.09595 7.59595 6.09595H6.59595C6.31981 6.09595 6.09595 6.31981 6.09595 6.59595V7.59595C6.09595 7.87209 6.31981 8.09595 6.59595 8.09595H7.59595C7.87209 8.09595 8.09595 7.87209 8.09595 7.59595V6.59595Z" stroke="#3C3238" stroke-width="0.19209"/>
<path fill-rule="evenodd" clip-rule="evenodd" d="M17.0959 12.0959C17.6482 12.0959 18.0959 12.5436 18.0959 13.0959V17.0959C18.0959 17.6482 17.6482 18.0959 17.0959 18.0959H13.0959C12.5436 18.0959 12.0959 17.6482 12.0959 17.0959V13.0959C12.0959 12.5436 12.5436 12.0959 13.0959 12.0959H17.0959ZM14.0959 14.5959C14.0959 14.3198 14.3198 14.0959 14.5959 14.0959H15.5959C15.872 14.0959 16.0959 14.3198 16.0959 14.5959V15.5959C16.0959 15.872 15.872 16.0959 15.5959 16.0959H14.5959C14.3198 16.0959 14.0959 15.872 14.0959 15.5959V14.5959Z" stroke="#3C3238" stroke-width="0.19209"/>
<path d="M13.0959 4.09595C12.5436 4.09595 12.0959 4.54367 12.0959 5.09595C12.0959 5.64824 12.5436 6.09595 13.0959 6.09595H15.5959C15.872 6.09595 16.0959 6.31981 16.0959 6.59595V9.09595C16.0959 9.64825 16.5436 10.0959 17.0959 10.0959C17.6482 10.0959 18.0959 9.64825 18.0959 9.09595V5.09595C18.0959 4.54367 17.6482 4.09595 17.0959 4.09595H13.0959Z" stroke="#3C3238" stroke-width="0.19209"/>
<path d="M13.0959 7.09595C12.5436 7.09595 12.0959 7.54366 12.0959 8.09595V9.09595C12.0959 9.64825 12.5436 10.0959 13.0959 10.0959C13.6482 10.0959 14.0959 9.64825 14.0959 9.09595V8.09595C14.0959 7.54367 13.6482 7.09595 13.0959 7.09595Z" stroke="#3C3238" stroke-width="0.19209"/>
<path d="M5.09595 12.0959C4.54367 12.0959 4.09595 12.5436 4.09595 13.0959V15.0959C4.09595 15.6482 4.54367 16.0959 5.09595 16.0959C5.64824 16.0959 6.09595 15.6482 6.09595 15.0959V14.5959C6.09595 14.3198 6.31981 14.0959 6.59595 14.0959H9.09595C9.64825 14.0959 10.0959 13.6482 10.0959 13.0959C10.0959 12.5436 9.64825 12.0959 9.09595 12.0959H5.09595Z" stroke="#3C3238" stroke-width="0.19209"/>
<path d="M9.09595 16.0959C8.54366 16.0959 8.09595 16.5436 8.09595 17.0959C8.09595 17.6482 8.54366 18.0959 9.09595 18.0959C9.64825 18.0959 10.0959 17.6482 10.0959 17.0959C10.0959 16.5436 9.64825 16.0959 9.09595 16.0959Z" stroke="#3C3238" stroke-width="0.19209"/>
</svg>
