<svg width="16" height="20" viewBox="0 0 16 20" fill="none" xmlns="http://www.w3.org/2000/svg">
<path d="M0 4.35352L2.39009 8.68265V11.3233L0.002796 15.6439L0 4.35352Z" fill="white"/>
<path d="M9.177 7.10724L11.4166 5.71625L16.0001 5.71191L9.177 9.94755V7.10724Z" fill="white"/>
<path d="M9.16426 4.3278L9.17693 10.0594L6.78125 8.56777V0L9.16426 4.3278Z" fill="white"/>
<path d="M16 5.71179L11.4164 5.71612L9.16426 4.3278L6.78125 0L16 5.71179Z" fill="white"/>
<path d="M9.17693 15.668V12.8871L6.78125 11.4238L6.78257 20.0001L9.17693 15.668Z" fill="white"/>
<path d="M11.411 14.2896L2.38992 8.68265L0 4.35352L15.9903 14.2839L11.411 14.2896Z" fill="white"/>
<path d="M6.78271 20.0003L9.17675 15.6682L11.4107 14.2898L15.9901 14.2842L6.78271 20.0003Z" fill="white"/>
<path d="M0.00292969 15.6439L6.80099 11.4239L4.51551 10.0029L2.39022 11.3233L0.00292969 15.6439Z" fill="white"/>
</svg>
