<svg width="23" height="23" viewBox="0 0 23 23" fill="none" xmlns="http://www.w3.org/2000/svg">
<path d="M22.0959 3.0957C22.0959 1.43885 20.7528 0.0957031 19.0959 0.0957031H15.0959C14.5436 0.0957031 14.0959 0.543423 14.0959 1.0957C14.0959 1.64798 14.5436 2.0957 15.0959 2.0957H19.0959C19.6482 2.0957 20.0959 2.54342 20.0959 3.0957V7.0957C20.0959 7.64798 20.5436 8.0957 21.0959 8.0957C21.6482 8.0957 22.0959 7.64798 22.0959 7.0957V3.0957Z" fill="white"/>
<path d="M22.0959 15.0957C22.0959 14.5434 21.6482 14.0957 21.0959 14.0957C20.5436 14.0957 20.0959 14.5434 20.0959 15.0957V19.0957C20.0959 19.648 19.6482 20.0957 19.0959 20.0957H15.0959C14.5436 20.0957 14.0959 20.5434 14.0959 21.0957C14.0959 21.648 14.5436 22.0957 15.0959 22.0957H19.0959C20.7528 22.0957 22.0959 20.7526 22.0959 19.0957V15.0957Z" fill="white"/>
<path d="M3.09595 20.0957C2.54367 20.0957 2.09595 19.648 2.09595 19.0957V15.0957C2.09595 14.5434 1.64823 14.0957 1.09595 14.0957C0.543667 14.0957 0.0959473 14.5434 0.0959473 15.0957V19.0957C0.0959473 20.7526 1.4391 22.0957 3.09595 22.0957H7.09595C7.64823 22.0957 8.09595 21.648 8.09595 21.0957C8.09595 20.5434 7.64823 20.0957 7.09595 20.0957H3.09595Z" fill="white"/>
<path d="M0.0959473 7.0957C0.0959473 7.64798 0.543667 8.0957 1.09595 8.0957C1.64823 8.0957 2.09595 7.64798 2.09595 7.0957V3.0957C2.09595 2.54342 2.54367 2.0957 3.09595 2.0957H7.09595C7.64823 2.0957 8.09595 1.64798 8.09595 1.0957C8.09595 0.543423 7.64823 0.0957031 7.09595 0.0957031H3.09595C1.4391 0.0957031 0.0959473 1.43885 0.0959473 3.0957V7.0957Z" fill="white"/>
<path fill-rule="evenodd" clip-rule="evenodd" d="M10.0959 5.0957C10.0959 4.54342 9.64825 4.0957 9.09595 4.0957H5.09595C4.54367 4.0957 4.09595 4.54342 4.09595 5.0957V9.0957C4.09595 9.648 4.54367 10.0957 5.09595 10.0957H9.09595C9.64825 10.0957 10.0959 9.648 10.0959 9.0957V5.0957ZM8.09595 6.5957C8.09595 6.31956 7.87209 6.0957 7.59595 6.0957H6.59595C6.31981 6.0957 6.09595 6.31956 6.09595 6.5957V7.5957C6.09595 7.87184 6.31981 8.0957 6.59595 8.0957H7.59595C7.87209 8.0957 8.09595 7.87184 8.09595 7.5957V6.5957Z" fill="white"/>
<path fill-rule="evenodd" clip-rule="evenodd" d="M17.0959 12.0957C17.6482 12.0957 18.0959 12.5434 18.0959 13.0957V17.0957C18.0959 17.648 17.6482 18.0957 17.0959 18.0957H13.0959C12.5436 18.0957 12.0959 17.648 12.0959 17.0957V13.0957C12.0959 12.5434 12.5436 12.0957 13.0959 12.0957H17.0959ZM14.0959 14.5957C14.0959 14.3196 14.3198 14.0957 14.5959 14.0957H15.5959C15.872 14.0957 16.0959 14.3196 16.0959 14.5957V15.5957C16.0959 15.8718 15.872 16.0957 15.5959 16.0957H14.5959C14.3198 16.0957 14.0959 15.8718 14.0959 15.5957V14.5957Z" fill="white"/>
<path d="M13.0959 4.0957C12.5436 4.0957 12.0959 4.54342 12.0959 5.0957C12.0959 5.64799 12.5436 6.0957 13.0959 6.0957H15.5959C15.872 6.0957 16.0959 6.31956 16.0959 6.5957V9.0957C16.0959 9.648 16.5436 10.0957 17.0959 10.0957C17.6482 10.0957 18.0959 9.648 18.0959 9.0957V5.0957C18.0959 4.54342 17.6482 4.0957 17.0959 4.0957H13.0959Z" fill="white"/>
<path d="M13.0959 7.0957C12.5436 7.0957 12.0959 7.54341 12.0959 8.0957V9.0957C12.0959 9.648 12.5436 10.0957 13.0959 10.0957C13.6482 10.0957 14.0959 9.648 14.0959 9.0957V8.0957C14.0959 7.54342 13.6482 7.0957 13.0959 7.0957Z" fill="white"/>
<path d="M5.09595 12.0957C4.54367 12.0957 4.09595 12.5434 4.09595 13.0957V15.0957C4.09595 15.648 4.54367 16.0957 5.09595 16.0957C5.64824 16.0957 6.09595 15.648 6.09595 15.0957V14.5957C6.09595 14.3196 6.31981 14.0957 6.59595 14.0957H9.09595C9.64825 14.0957 10.0959 13.648 10.0959 13.0957C10.0959 12.5434 9.64825 12.0957 9.09595 12.0957H5.09595Z" fill="white"/>
<path d="M9.09595 16.0957C8.54366 16.0957 8.09595 16.5434 8.09595 17.0957C8.09595 17.648 8.54366 18.0957 9.09595 18.0957C9.64825 18.0957 10.0959 17.648 10.0959 17.0957C10.0959 16.5434 9.64825 16.0957 9.09595 16.0957Z" fill="white"/>
<path d="M22.0959 3.0957C22.0959 1.43885 20.7528 0.0957031 19.0959 0.0957031H15.0959C14.5436 0.0957031 14.0959 0.543423 14.0959 1.0957C14.0959 1.64798 14.5436 2.0957 15.0959 2.0957H19.0959C19.6482 2.0957 20.0959 2.54342 20.0959 3.0957V7.0957C20.0959 7.64798 20.5436 8.0957 21.0959 8.0957C21.6482 8.0957 22.0959 7.64798 22.0959 7.0957V3.0957Z" stroke="white" stroke-width="0.19209"/>
<path d="M22.0959 15.0957C22.0959 14.5434 21.6482 14.0957 21.0959 14.0957C20.5436 14.0957 20.0959 14.5434 20.0959 15.0957V19.0957C20.0959 19.648 19.6482 20.0957 19.0959 20.0957H15.0959C14.5436 20.0957 14.0959 20.5434 14.0959 21.0957C14.0959 21.648 14.5436 22.0957 15.0959 22.0957H19.0959C20.7528 22.0957 22.0959 20.7526 22.0959 19.0957V15.0957Z" stroke="white" stroke-width="0.19209"/>
<path d="M3.09595 20.0957C2.54367 20.0957 2.09595 19.648 2.09595 19.0957V15.0957C2.09595 14.5434 1.64823 14.0957 1.09595 14.0957C0.543667 14.0957 0.0959473 14.5434 0.0959473 15.0957V19.0957C0.0959473 20.7526 1.4391 22.0957 3.09595 22.0957H7.09595C7.64823 22.0957 8.09595 21.648 8.09595 21.0957C8.09595 20.5434 7.64823 20.0957 7.09595 20.0957H3.09595Z" stroke="white" stroke-width="0.19209"/>
<path d="M0.0959473 7.0957C0.0959473 7.64798 0.543667 8.0957 1.09595 8.0957C1.64823 8.0957 2.09595 7.64798 2.09595 7.0957V3.0957C2.09595 2.54342 2.54367 2.0957 3.09595 2.0957H7.09595C7.64823 2.0957 8.09595 1.64798 8.09595 1.0957C8.09595 0.543423 7.64823 0.0957031 7.09595 0.0957031H3.09595C1.4391 0.0957031 0.0959473 1.43885 0.0959473 3.0957V7.0957Z" stroke="white" stroke-width="0.19209"/>
<path fill-rule="evenodd" clip-rule="evenodd" d="M10.0959 5.0957C10.0959 4.54342 9.64825 4.0957 9.09595 4.0957H5.09595C4.54367 4.0957 4.09595 4.54342 4.09595 5.0957V9.0957C4.09595 9.648 4.54367 10.0957 5.09595 10.0957H9.09595C9.64825 10.0957 10.0959 9.648 10.0959 9.0957V5.0957ZM8.09595 6.5957C8.09595 6.31956 7.87209 6.0957 7.59595 6.0957H6.59595C6.31981 6.0957 6.09595 6.31956 6.09595 6.5957V7.5957C6.09595 7.87184 6.31981 8.0957 6.59595 8.0957H7.59595C7.87209 8.0957 8.09595 7.87184 8.09595 7.5957V6.5957Z" stroke="white" stroke-width="0.19209"/>
<path fill-rule="evenodd" clip-rule="evenodd" d="M17.0959 12.0957C17.6482 12.0957 18.0959 12.5434 18.0959 13.0957V17.0957C18.0959 17.648 17.6482 18.0957 17.0959 18.0957H13.0959C12.5436 18.0957 12.0959 17.648 12.0959 17.0957V13.0957C12.0959 12.5434 12.5436 12.0957 13.0959 12.0957H17.0959ZM14.0959 14.5957C14.0959 14.3196 14.3198 14.0957 14.5959 14.0957H15.5959C15.872 14.0957 16.0959 14.3196 16.0959 14.5957V15.5957C16.0959 15.8718 15.872 16.0957 15.5959 16.0957H14.5959C14.3198 16.0957 14.0959 15.8718 14.0959 15.5957V14.5957Z" stroke="white" stroke-width="0.19209"/>
<path d="M13.0959 4.0957C12.5436 4.0957 12.0959 4.54342 12.0959 5.0957C12.0959 5.64799 12.5436 6.0957 13.0959 6.0957H15.5959C15.872 6.0957 16.0959 6.31956 16.0959 6.5957V9.0957C16.0959 9.648 16.5436 10.0957 17.0959 10.0957C17.6482 10.0957 18.0959 9.648 18.0959 9.0957V5.0957C18.0959 4.54342 17.6482 4.0957 17.0959 4.0957H13.0959Z" stroke="white" stroke-width="0.19209"/>
<path d="M13.0959 7.0957C12.5436 7.0957 12.0959 7.54341 12.0959 8.0957V9.0957C12.0959 9.648 12.5436 10.0957 13.0959 10.0957C13.6482 10.0957 14.0959 9.648 14.0959 9.0957V8.0957C14.0959 7.54342 13.6482 7.0957 13.0959 7.0957Z" stroke="white" stroke-width="0.19209"/>
<path d="M5.09595 12.0957C4.54367 12.0957 4.09595 12.5434 4.09595 13.0957V15.0957C4.09595 15.648 4.54367 16.0957 5.09595 16.0957C5.64824 16.0957 6.09595 15.648 6.09595 15.0957V14.5957C6.09595 14.3196 6.31981 14.0957 6.59595 14.0957H9.09595C9.64825 14.0957 10.0959 13.648 10.0959 13.0957C10.0959 12.5434 9.64825 12.0957 9.09595 12.0957H5.09595Z" stroke="white" stroke-width="0.19209"/>
<path d="M9.09595 16.0957C8.54366 16.0957 8.09595 16.5434 8.09595 17.0957C8.09595 17.648 8.54366 18.0957 9.09595 18.0957C9.64825 18.0957 10.0959 17.648 10.0959 17.0957C10.0959 16.5434 9.64825 16.0957 9.09595 16.0957Z" stroke="white" stroke-width="0.19209"/>
</svg>
